<?xml version="1.0" encoding="UTF-8" standalone="no" ?>
<!DOCTYPE svg PUBLIC "-//W3C//DTD SVG 1.1//EN" "http://www.w3.org/Graphics/SVG/1.1/DTD/svg11.dtd">
<svg xmlns="http://www.w3.org/2000/svg" xmlns:xlink="http://www.w3.org/1999/xlink" version="1.1" width="640" height="640" viewBox="0 0 640 640" xml:space="preserve">
<desc>Created with Fabric.js 5.3.0</desc>
<defs>
</defs>
<g transform="matrix(1 0 0 1 320 317.385620915)" id="qh8GNO6F4xzpuSya-CCqR"  >
<path style="stroke: none; stroke-width: 1; stroke-dasharray: none; stroke-linecap: butt; stroke-dashoffset: 0; stroke-linejoin: miter; stroke-miterlimit: 4; fill: rgb(101,0,195); fill-rule: nonzero; opacity: 1;" vector-effect="non-scaling-stroke"  transform=" translate(-256, -256)" d="M 61.1 224 C 45 224 32 211 32 194.9 C 32 193 32.2 191.20000000000002 32.6 189.3 C 37.9 168.3 78.8 32 256 32 C 433.2 32 474.1 168.3 479.4 189.3 C 479.9 191.20000000000002 480 193 480 194.9 C 480 211 467 224 450.9 224 L 61.1 224 z M 144 128 C 144 119.16344400270731 136.8365559972927 112 128 112 C 119.16344400270731 112 112 119.16344400270731 112 128 C 112 136.8365559972927 119.16344400270731 144 128 144 C 136.8365559972927 144 144 136.8365559972927 144 128 z M 384 144 C 392.8365559972927 144 400 136.8365559972927 400 128 C 400 119.16344400270731 392.8365559972927 112 384 112 C 375.1634440027073 112 368 119.16344400270731 368 128 C 368 136.8365559972927 375.1634440027073 144 384 144 z M 272 96 C 272 87.16344400270731 264.8365559972927 80 256 80 C 247.1634440027073 80 240 87.16344400270731 240 96 C 240 104.83655599729269 247.1634440027073 112 256 112 C 264.8365559972927 112 272 104.83655599729269 272 96 z M 16 304 C 16 277.5 37.5 256 64 256 L 448 256 C 474.5 256 496 277.5 496 304 C 496 330.5 474.5 352 448 352 L 64 352 C 37.5 352 16 330.5 16 304 z M 32 400 C 32 391.2 39.2 384 48 384 L 464 384 C 472.8 384 480 391.2 480 400 L 480 416 C 480 451.3 451.3 480 416 480 L 96 480 C 60.7 480 32 451.3 32 416 L 32 400 z" stroke-linecap="round" />
</g>
</svg>