<?xml version="1.0" encoding="UTF-8" standalone="no" ?>
<!DOCTYPE svg PUBLIC "-//W3C//DTD SVG 1.1//EN" "http://www.w3.org/Graphics/SVG/1.1/DTD/svg11.dtd">
<svg xmlns="http://www.w3.org/2000/svg" xmlns:xlink="http://www.w3.org/1999/xlink" version="1.1" width="500" height="500" viewBox="0 0 500 500" xml:space="preserve">
<desc>Created with Fabric.js 5.3.0</desc>
<defs>
</defs>
<g transform="matrix(1 0 0 1 250 250)" id="LPKOEttlHgIsaiPNj98p0"  >
<path style="stroke: none; stroke-width: 1; stroke-dasharray: none; stroke-linecap: butt; stroke-dashoffset: 0; stroke-linejoin: miter; stroke-miterlimit: 4; fill: rgb(101,0,195); fill-rule: nonzero; opacity: 1;" vector-effect="non-scaling-stroke"  transform=" translate(-192, -256)" d="M 64 0 C 28.7 0 0 28.7 0 64 L 0 448 C 0 483.3 28.7 512 64 512 L 320 512 C 355.3 512 384 483.3 384 448 L 384 64 C 384 28.700000000000003 355.3 0 320 0 L 64 0 z M 96 64 L 288 64 C 305.7 64 320 78.3 320 96 L 320 128 C 320 145.7 305.7 160 288 160 L 96 160 C 78.3 160 64 145.7 64 128 L 64 96 C 64 78.3 78.3 64 96 64 z M 128 224 C 128 241.67311199458538 113.67311199458538 256 96 256 C 78.32688800541462 256 64 241.67311199458538 64 224 C 64 206.32688800541462 78.32688800541462 192 96 192 C 113.67311199458538 192 128 206.32688800541462 128 224 z M 96 352 C 78.32688800541462 352 64 337.6731119945854 64 320 C 64 302.3268880054146 78.32688800541462 288 96 288 C 113.67311199458538 288 128 302.3268880054146 128 320 C 128 337.6731119945854 113.6731119945854 352 96.00000000000001 352 z M 64 416 C 64 398.3 78.3 384 96 384 L 192 384 C 209.7 384 224 398.3 224 416 C 224 433.7 209.7 448 192 448 L 96 448 C 78.3 448 64 433.7 64 416 z M 192 256 C 174.32688800541462 256 160 241.67311199458538 160 224 C 160 206.32688800541462 174.32688800541462 192 192 192 C 209.67311199458538 192 224 206.32688800541462 224 224 C 224 241.67311199458538 209.6731119945854 256 192 256 z M 224 320 C 224 337.6731119945854 209.67311199458538 352 192 352 C 174.32688800541462 352 160 337.6731119945854 160 320 C 160 302.3268880054146 174.32688800541462 288 192 288 C 209.67311199458538 288 224 302.3268880054146 224 320 z M 288 256 C 270.3268880054146 256 256 241.67311199458538 256 224 C 256 206.32688800541462 270.3268880054146 192 288 192 C 305.6731119945854 192 320 206.32688800541462 320 224 C 320 241.67311199458538 305.6731119945854 256 288 256 z M 320 320 C 320 337.6731119945854 305.6731119945854 352 288 352 C 270.3268880054146 352 256 337.6731119945854 256 320 C 256 302.3268880054146 270.3268880054146 288 288 288 C 305.6731119945854 288 320 302.3268880054146 320 320 z M 288 448 C 270.3268880054146 448 256 433.6731119945854 256 416 C 256 398.3268880054146 270.3268880054146 384 288 384 C 305.6731119945854 384 320 398.3268880054146 320 416 C 320 433.6731119945854 305.6731119945854 448 288 448 z" stroke-linecap="round" />
</g>
</svg>