<?xml version="1.0" encoding="UTF-8" standalone="no" ?>
<!DOCTYPE svg PUBLIC "-//W3C//DTD SVG 1.1//EN" "http://www.w3.org/Graphics/SVG/1.1/DTD/svg11.dtd">
<svg xmlns="http://www.w3.org/2000/svg" xmlns:xlink="http://www.w3.org/1999/xlink" version="1.1" width="640" height="640" viewBox="0 0 640 640" xml:space="preserve">
<desc>Created with Fabric.js 5.3.0</desc>
<defs>
</defs>
<g transform="matrix(1 0 0 1 320 320)" id="Q-zCNAil-LJ1XbsTOXD3z"  >
<path style="stroke: none; stroke-width: 1; stroke-dasharray: none; stroke-linecap: butt; stroke-dashoffset: 0; stroke-linejoin: miter; stroke-miterlimit: 4; fill: rgb(101,0,195); fill-rule: nonzero; opacity: 1;" vector-effect="non-scaling-stroke"  transform=" translate(-224, -256.05)" d="M 181.3 32.4 C 198.70000000000002 35.3 210.5 51.8 207.60000000000002 69.19999999999999 L 197.8 128 L 292.9 128 L 304.4 58.7 C 307.29999999999995 41.300000000000004 323.79999999999995 29.500000000000004 341.2 32.400000000000006 C 358.6 35.30000000000001 370.4 51.800000000000004 367.5 69.2 L 357.8 128 L 416 128 C 433.7 128 448 142.3 448 160 C 448 177.7 433.7 192 416 192 L 347.1 192 L 325.8 320 L 384 320 C 401.7 320 416 334.3 416 352 C 416 369.7 401.7 384 384 384 L 315.1 384 L 303.6 453.3 C 300.70000000000005 470.7 284.20000000000005 482.5 266.8 479.6 C 249.39999999999998 476.70000000000005 237.60000000000002 460.20000000000005 240.5 442.8 L 250.3 384.1 L 155.1 384.1 L 143.6 453.40000000000003 C 140.7 470.8 124.19999999999999 482.6 106.8 479.70000000000005 C 89.4 476.80000000000007 77.6 460.30000000000007 80.5 442.90000000000003 L 90.2 384 L 32 384 C 14.3 384 0 369.7 0 352 C 0 334.3 14.3 320 32 320 L 100.9 320 L 122.2 192 L 64 192 C 46.3 192 32 177.7 32 160 C 32 142.3 46.3 128 64 128 L 132.9 128 L 144.4 58.7 C 147.3 41.300000000000004 163.8 29.500000000000004 181.2 32.400000000000006 z M 187.1 192 L 165.8 320 L 260.9 320 L 282.2 192 L 187.1 192 z" stroke-linecap="round" />
</g>
</svg>