<?xml version="1.0" encoding="UTF-8" standalone="no" ?>
<!DOCTYPE svg PUBLIC "-//W3C//DTD SVG 1.1//EN" "http://www.w3.org/Graphics/SVG/1.1/DTD/svg11.dtd">
<svg xmlns="http://www.w3.org/2000/svg" xmlns:xlink="http://www.w3.org/1999/xlink" version="1.1" width="640" height="640" viewBox="0 0 640 640" xml:space="preserve">
<desc>Created with Fabric.js 5.3.0</desc>
<defs>
</defs>
<g transform="matrix(1 0 0 1 320 320)" id="CEbmgVfNWXEQAmA-ciyT6"  >
<path style="stroke: none; stroke-width: 1; stroke-dasharray: none; stroke-linecap: butt; stroke-dashoffset: 0; stroke-linejoin: miter; stroke-miterlimit: 4; fill: rgb(101,0,195); fill-rule: nonzero; opacity: 1;" vector-effect="non-scaling-stroke"  transform=" translate(-256, -255.9887261672)" d="M 280 0 C 408.1 0 512 103.9 512 232 C 512 245.3 501.3 256 488 256 C 474.7 256 464 245.3 464 232 C 464 130.4 381.6 48 280 48 C 266.7 48 256 37.3 256 24 C 256 10.700000000000003 266.7 0 280 0 z M 288 192 C 305.6731119945854 192 320 206.32688800541462 320 224 C 320 241.67311199458538 305.6731119945854 256 288 256 C 270.3268880054146 256 256 241.67311199458538 256 224 C 256 206.32688800541462 270.3268880054146 192 288 192 z M 256 120 C 256 106.7 266.7 96 280 96 C 355.1 96 416 156.9 416 232 C 416 245.3 405.3 256 392 256 C 378.7 256 368 245.3 368 232 C 368 183.4 328.6 144 280 144 C 266.7 144 256 133.3 256 120 z M 117.5 1.4 C 136.9 -3.9 157.2 6 164.9 24.599999999999998 L 204.9 120.6 C 211.70000000000002 136.9 207 155.8 193.3 166.89999999999998 L 144 207.3 C 177.3 277.70000000000005 234.3 334.70000000000005 304.7 368 L 345 318.7 C 356.2 305 375 300.3 391.3 307.09999999999997 L 487.3 347.09999999999997 C 505.90000000000003 354.79999999999995 515.8 375.09999999999997 510.5 394.49999999999994 L 486.5 482.49999999999994 C 481.8 499.9 466 512 448 512 C 200.6 512 0 311.4 0 64 C 0 46 12.1 30.2 29.5 25.4 L 117.5 1.3999999999999986 z" stroke-linecap="round" />
</g>
</svg>